<mxfile host="65bd71144e">
    <diagram id="owvQPqy146tOp0aBp-Dt" name="S12-01 従業員情報一覧">
        <mxGraphModel dx="814" dy="339" grid="1" gridSize="10" guides="1" tooltips="1" connect="1" arrows="1" fold="1" page="1" pageScale="1" pageWidth="827" pageHeight="1169" math="0" shadow="0">
            <root>
                <mxCell id="0"/>
                <mxCell id="1" parent="0"/>
            </root>
        </mxGraphModel>
    </diagram>
    <diagram id="oEgPNs9piUuRIKhR_5-g" name="S12-02 従業員情報詳細">
        <mxGraphModel dx="814" dy="339" grid="1" gridSize="10" guides="1" tooltips="1" connect="1" arrows="1" fold="1" page="1" pageScale="1" pageWidth="827" pageHeight="1169" math="0" shadow="0">
            <root>
                <mxCell id="AkZxitWeGRhTtYOAeKr6-0"/>
                <mxCell id="AkZxitWeGRhTtYOAeKr6-1" parent="AkZxitWeGRhTtYOAeKr6-0"/>
            </root>
        </mxGraphModel>
    </diagram>
</mxfile>